#tb 0: 1/8
#media_type 0: video
#codec_id 0: rawvideo
#dimensions 0: 160x120
#sar 0: 1/1
0,          0,          0,        1,    38400, 0xaadbf3e0
0,          1,          1,        1,    38400, 0x02c882d1
0,          2,          2,        1,    38400, 0xc246dcaa
0,          3,          3,        1,    38400, 0x4503b0df
0,          4,          4,        1,    38400, 0x3ed4a056
0,          5,          5,        1,    38400, 0x374a85a6
0,          6,          6,        1,    38400, 0xb03343d6
0,          7,          7,        1,    38400, 0x188e8b4b
